<?xml version="1.0" encoding="UTF-8"?><svg id="Layer_1" xmlns="http://www.w3.org/2000/svg" viewBox="0 0 355.62 515.21"><defs><style>.cls-1{fill:#fff;}</style></defs><path class="cls-1" d="M333.8,216.04c3.04,.3,5.02,.56,5.06,.57,1.52,.22,3.07-.21,4.28-1.16,1.2-.96,1.96-2.38,2.08-3.9l1.95-23.03c.23-2.69-1.5-5.16-4.09-5.88-.12-.04-1.29-.34-3.23-.72l-6.59-8.86-7.64-167.71c-.14-2.99-2.61-5.35-5.59-5.35h-.01c-3,0-5.46,2.37-5.58,5.36l-7.07,167.91-6.46,8.73c-1.18,.2-2.38,.3-3.55,.54-2.82,.57-4.75,3.18-4.46,6.04l2.27,23.03c.15,1.58,.97,3.02,2.25,3.96,.97,.72,2.14,1.09,3.33,1.09,.37,0,.75-.04,1.12-.11,1.84-.38,3.92-.66,6.14-.88-2.65,98.19-5.3,164.56-7.5,208.64v-25.62c0-1.78-.84-3.46-2.29-4.51-1.44-1.06-3.3-1.37-4.99-.83l-33.08,10.38c-2.34,.73-3.93,2.9-3.93,5.34v10.29h-22.61c-3.1,0-5.6,2.5-5.6,5.6v4.03c-.42-2.68-2.63-4.76-5.43-4.76h-28.38c-3.1,0-5.6,2.5-5.6,5.6v27.16C92.7,393.99,.95,484.29,0,485.24l7.93,7.9c3.67-3.7,90.21-88.54,180.65-22.48v24.67c0,3.1,2.5,5.6,5.6,5.6s5.6-2.5,5.6-5.6v-59.91s17.17,0,17.17,0v68.35c0,3.1,2.5,5.6,5.6,5.6s5.6-2.5,5.6-5.6v-24.46c.42,2.68,2.63,4.76,5.43,4.76,3.1,0,5.6-2.5,5.6-5.6v-47.92h17.01v51.81c0,3.1,2.5,5.6,5.6,5.6s5.6-2.5,5.6-5.6v-69.19s21.87-6.87,21.87-6.87v103.3c0,3.1,2.5,5.6,5.6,5.6,2.73,0,4.89-1.99,5.39-4.57,.15,.01,.3,.04,.45,.04,2.78,0,5.19-2.06,5.55-4.89,.26-2.07,6.54-53.23,12.93-290.54,1.13,.01,2.24,.03,3.33,.07,1.25,23.23,9.68,174.49,21.91,290.35,.3,2.87,2.73,5.01,5.56,5.01,.2,0,.39-.01,.59-.04,3.07-.32,5.3-3.08,4.98-6.16-11.98-113.47-20.3-261.13-21.79-288.43h0Zm-17.7-35.75c1.64-.23,4.53-.43,8.55,0-1.29-.04-2.6-.09-3.99-.09-1.56,0-3.11,.17-4.67,.23l.11-.14Zm4.13-46.6l1.6,35.17c-1.1-.04-2.14-.04-3.08-.01l1.48-35.16Zm-15.7,58.95c5.35-.82,10.75-1.24,16.13-1.24,6.37,0,11.52,.59,14.93,1.14l-1.05,12.31c-4.19-.4-10.21-.83-16.67-.83-4.43,0-8.5,.21-12.16,.61l-1.18-11.99Z"/></svg>